<svg width="22" height="22" viewBox="0 0 22 22" fill="none" xmlns="http://www.w3.org/2000/svg">
<path d="M17.6929 0.357142H4.30008C2.08189 0.357142 0.282227 2.15681 0.282227 4.375V17.7679C0.282227 19.986 2.08189 21.7857 4.30008 21.7857H11.722V13.4849H8.93178V10.2483H11.722V7.86272C11.722 5.10045 13.424 3.59375 15.8933 3.59375C17.0652 3.59375 18.0836 3.67745 18.3765 3.71931V6.60714L16.6745 6.62109C15.3213 6.62109 15.0702 7.24888 15.0702 8.18359V10.2483H18.2649L17.8464 13.4849H15.0702V21.7857H17.6929C19.9111 21.7857 21.7108 19.986 21.7108 17.7679V4.375C21.7108 2.15681 19.9111 0.357142 17.6929 0.357142Z" fill="#045A75"/>
</svg>
