<svg width="22" height="22" viewBox="0 0 22 22" fill="none" xmlns="http://www.w3.org/2000/svg">
<path d="M14.5679 11.0714C14.5679 13.0385 12.9636 14.6429 10.9965 14.6429C9.02944 14.6429 7.42508 13.0385 7.42508 11.0714C7.42508 9.10435 9.02944 7.5 10.9965 7.5C12.9636 7.5 14.5679 9.10435 14.5679 11.0714ZM16.4932 11.0714C16.4932 8.03013 14.0378 5.57478 10.9965 5.57478C7.95522 5.57478 5.49986 8.03013 5.49986 11.0714C5.49986 14.1127 7.95522 16.5681 10.9965 16.5681C14.0378 16.5681 16.4932 14.1127 16.4932 11.0714ZM17.9999 5.35156C17.9999 4.64007 17.4279 4.06808 16.7164 4.06808C16.0049 4.06808 15.4329 4.64007 15.4329 5.35156C15.4329 6.06306 16.0049 6.63504 16.7164 6.63504C17.4279 6.63504 17.9999 6.06306 17.9999 5.35156ZM10.9965 2.28237C12.559 2.28237 15.9072 2.15681 17.3163 2.71484C17.8045 2.91015 18.1673 3.14732 18.5439 3.52399C18.9206 3.90067 19.1578 4.26339 19.3531 4.75167C19.9111 6.16071 19.7856 9.50893 19.7856 11.0714C19.7856 12.6339 19.9111 15.9821 19.3531 17.3912C19.1578 17.8795 18.9206 18.2422 18.5439 18.6189C18.1673 18.9955 17.8045 19.2327 17.3163 19.428C15.9072 19.986 12.559 19.8605 10.9965 19.8605C9.43401 19.8605 6.0858 19.986 4.67676 19.428C4.18848 19.2327 3.82575 18.9955 3.44908 18.6189C3.07241 18.2422 2.83524 17.8795 2.63993 17.3912C2.08189 15.9821 2.20745 12.6339 2.20745 11.0714C2.20745 9.50893 2.08189 6.16071 2.63993 4.75167C2.83524 4.26339 3.07241 3.90067 3.44908 3.52399C3.82575 3.14732 4.18848 2.91015 4.67676 2.71484C6.0858 2.15681 9.43401 2.28237 10.9965 2.28237ZM21.7108 11.0714C21.7108 9.59263 21.7248 8.12779 21.641 6.64899C21.5573 4.93304 21.1667 3.41239 19.9111 2.15681C18.6556 0.901226 17.1349 0.510601 15.4189 0.426897C13.9402 0.343191 12.4753 0.357142 10.9965 0.357142C9.51772 0.357142 8.05287 0.343191 6.57408 0.426897C4.85812 0.510601 3.33747 0.901226 2.08189 2.15681C0.826311 3.41239 0.435686 4.93304 0.351981 6.64899C0.268276 8.12779 0.282227 9.59263 0.282227 11.0714C0.282227 12.5502 0.268276 14.0151 0.351981 15.4939C0.435686 17.2098 0.826311 18.7305 2.08189 19.986C3.33747 21.2416 4.85812 21.6323 6.57408 21.716C8.05287 21.7997 9.51772 21.7857 10.9965 21.7857C12.4753 21.7857 13.9402 21.7997 15.4189 21.716C17.1349 21.6323 18.6556 21.2416 19.9111 19.986C21.1667 18.7305 21.5573 17.2098 21.641 15.4939C21.7248 14.0151 21.7108 12.5502 21.7108 11.0714Z" fill="#E71717"/>
</svg>
