<svg width="22" height="22" viewBox="0 0 22 22" fill="none" xmlns="http://www.w3.org/2000/svg">
<path d="M17.6929 0.357142H4.30008C2.08189 0.357142 0.282227 2.15681 0.282227 4.375V17.7679C0.282227 19.986 2.08189 21.7857 4.30008 21.7857H6.8531C6.76939 21.0184 6.64383 19.5257 6.95075 18.2422C6.95075 18.2422 7.16002 17.3772 8.31794 12.4665C7.98312 11.7829 7.98312 10.7785 7.98312 10.7785C7.98312 9.21596 8.88993 8.04408 10.0199 8.04408C10.9826 8.04408 11.4429 8.76953 11.4429 9.63449C11.4429 10.5971 10.8291 12.048 10.5082 13.3873C10.2432 14.5173 11.0802 15.4381 12.1823 15.4381C14.1913 15.4381 15.5445 12.8571 15.5445 9.8019C15.5445 7.4721 13.982 5.74219 11.136 5.74219C7.92732 5.74219 5.91839 8.12779 5.91839 10.8064C5.91839 11.7411 6.19741 12.3828 6.61593 12.899C6.81124 13.1222 6.83915 13.2199 6.76939 13.4849C6.71359 13.6802 6.60198 14.1546 6.56013 14.3359C6.49037 14.601 6.26716 14.6987 6.02999 14.601C4.5512 13.9872 3.85366 12.3689 3.85366 10.5552C3.85366 7.54185 6.39272 3.92857 11.429 3.92857C15.4748 3.92857 18.1394 6.85826 18.1394 9.99721C18.1394 14.1546 15.8235 17.2656 12.4195 17.2656C11.2755 17.2656 10.2013 16.6518 9.82464 15.9403C9.2108 18.3817 9.08524 18.856 9.08524 18.856C8.79227 20 8.03892 21.13 7.57854 21.7857H17.6929C19.9111 21.7857 21.7108 19.986 21.7108 17.7679V4.375C21.7108 2.15681 19.9111 0.357142 17.6929 0.357142Z" fill="#E71717"/>
</svg>
