<svg width="22" height="18" viewBox="0 0 22 18" fill="none" xmlns="http://www.w3.org/2000/svg">
<path d="M21.9916 2.26339C21.1824 2.61216 20.3035 2.86328 19.3967 2.96094C20.3314 2.4029 21.0429 1.52399 21.3777 0.477678C20.5128 0.993861 19.5362 1.37054 18.5178 1.56585C17.6947 0.686941 16.5228 0.142857 15.2254 0.142857C12.7282 0.142857 10.7192 2.16574 10.7192 4.64899C10.7192 4.99777 10.7611 5.34654 10.8308 5.68136C7.09201 5.48605 3.75774 3.70033 1.53955 0.96596C1.14893 1.6356 0.925712 2.4029 0.925712 3.23995C0.925712 4.80245 1.72091 6.18359 2.93464 6.99274C2.19524 6.96484 1.4977 6.75558 0.89781 6.42076C0.89781 6.43471 0.89781 6.46261 0.89781 6.47656C0.89781 8.66685 2.44636 10.4805 4.51109 10.899C4.13442 10.9967 3.72984 11.0525 3.32527 11.0525C3.0323 11.0525 2.75328 11.0246 2.47426 10.9827C3.04625 12.7684 4.7064 14.0658 6.68743 14.1077C5.13888 15.3214 3.19971 16.0329 1.09312 16.0329C0.716448 16.0329 0.367676 16.019 0.0049526 15.9771C1.99993 17.2606 4.37158 18 6.9246 18C15.2114 18 19.7455 11.1362 19.7455 5.17913C19.7455 4.98382 19.7455 4.7885 19.7315 4.59319C20.6104 3.95145 21.3777 3.15625 21.9916 2.26339Z" fill="#00C0FD"/>
</svg>
