<svg width="27" height="18" viewBox="0 0 27 18" fill="none" xmlns="http://www.w3.org/2000/svg">
<path d="M10.9191 12.308V5.29074L17.6713 8.82031L10.9191 12.308ZM13.5 0.282366C8.24051 0.282366 4.75279 0.533482 4.75279 0.533482C4.26451 0.589285 3.19029 0.589285 2.24163 1.59375C2.24163 1.59375 1.47433 2.3471 1.25112 4.07701C0.986049 6.09989 1 8.12277 1 8.12277V10.0201C1 10.0201 0.986049 12.043 1.25112 14.0658C1.47433 15.7818 2.24163 16.5491 2.24163 16.5491C3.19029 17.5396 4.44587 17.5117 5.00391 17.6094C5.00391 17.6094 6.99888 17.8047 13.5 17.8605C18.7595 17.8605 22.2472 17.5954 22.2472 17.5954C22.7355 17.5396 23.8097 17.5396 24.7584 16.5491C24.7584 16.5491 25.5257 15.7818 25.7489 14.0658C26.014 12.043 26 10.0201 26 10.0201V8.12277C26 8.12277 26.014 6.09989 25.7489 4.07701C25.5257 2.3471 24.7584 1.59375 24.7584 1.59375C23.8097 0.589285 22.7355 0.589285 22.2472 0.533482C22.2472 0.533482 18.7595 0.282366 13.5 0.282366Z" fill="#E71717"/>
</svg>
