<svg width="513" height="338" viewBox="0 0 513 338" fill="none" xmlns="http://www.w3.org/2000/svg">
<path d="M55.1221 117.305C50.6431 109.661 43.7752 107.571 35.474 108.526C24.9632 109.781 18.3342 116.768 18.7523 127.338C19.1106 136.177 19.9467 145.016 21.2008 153.735C21.6786 157.258 23.8882 160.483 25.2618 163.828C25.9785 165.619 27.0534 167.411 27.2326 169.203C28.2478 182.281 29.0242 195.42 29.92 208.499C32.07 239.792 34.1602 271.026 36.3101 302.32C36.6087 306.381 36.549 306.381 40.5503 306.381C118.187 306.441 195.824 306.56 273.461 306.62C302.306 306.679 331.21 306.739 360.056 306.739C400.367 306.739 440.678 306.739 480.99 306.739C483.558 306.739 486.126 306.5 488.873 306.381C488.873 304.888 488.933 303.753 488.873 302.559C486.842 273.893 484.872 245.227 482.781 216.501C482.662 214.769 483.199 214.112 484.752 213.456C495.98 208.738 498.846 193.867 490.246 184.969C489.53 184.192 488.574 183.655 487.738 182.998C500.041 171.233 497.293 155.288 482.005 147.166C482.184 146.927 482.244 146.628 482.483 146.509C494.905 138.148 489.709 115.275 477.048 111.871C476.272 111.692 475.495 110.199 475.376 109.243C474.779 103.032 474.42 96.7615 473.943 90.4908C473.883 89.4756 473.644 88.4006 473.465 87.1465C447.248 89.4159 421.329 91.6853 394.932 94.0144C401.024 78.1884 401.92 62.5416 396.843 46.8351C391.707 31.0091 381.913 18.6469 367.7 9.92774C344.23 -4.28576 313.235 -3.44967 292.034 13.8096C261.218 38.8325 257.575 69.8872 274.775 104.764C266.414 105.481 258.053 106.197 249.214 106.974C270.534 75.3218 261.815 36.1451 236.613 15.6012C212.068 -4.34548 176.355 -4.88297 151.929 14.4068C139.268 24.3801 130.788 37.1603 127.444 52.9266C122.308 76.8148 128.698 97.717 145.539 116.051C137.656 116.768 130.49 117.425 123.263 117.903C122.606 117.962 121.591 116.708 121.233 115.872C118.665 110.378 114.544 107.033 108.393 106.496C101.226 105.899 95.0752 108.049 90.5364 113.901C78.4729 102.435 66.469 103.629 55.1221 117.305Z" fill="white"/>
<path d="M55.1218 117.305C66.4687 103.629 78.4725 102.435 90.4764 113.901C95.0151 108.049 101.107 105.899 108.333 106.496C114.484 107.033 118.605 110.318 121.173 115.872C121.591 116.708 122.546 117.903 123.203 117.903C130.429 117.425 137.596 116.708 145.479 116.051C128.638 97.717 122.307 76.8148 127.384 52.9266C130.788 37.1603 139.208 24.3801 151.869 14.4068C176.355 -4.88296 212.008 -4.34547 236.493 15.5415C261.755 36.0854 270.415 75.2621 249.094 106.914C257.933 106.138 266.354 105.421 274.655 104.704C257.575 69.8872 261.158 38.8325 292.033 13.8096C313.234 -3.44966 344.229 -4.28575 367.759 10.1069C381.973 18.8261 391.767 31.1883 396.903 47.0142C402.039 62.7208 401.143 78.3676 394.992 94.1935C421.388 91.8644 447.307 89.6548 473.524 87.3257C473.704 88.5798 473.883 89.595 474.002 90.67C474.48 96.9407 474.838 103.152 475.435 109.422C475.495 110.378 476.331 111.811 477.108 112.05C489.768 115.454 494.964 138.327 482.542 146.688C482.303 146.807 482.244 147.106 482.064 147.345C497.293 155.467 500.04 171.412 487.798 183.177C488.634 183.834 489.529 184.372 490.306 185.148C498.906 193.987 496.039 208.917 484.812 213.635C483.259 214.292 482.721 214.949 482.841 216.68C484.931 245.346 486.902 274.012 488.932 302.738C488.992 303.873 488.932 305.067 488.932 306.56C486.185 306.679 483.617 306.918 481.049 306.918C440.738 306.918 400.426 306.978 360.115 306.918C331.27 306.918 302.365 306.859 273.52 306.799C195.883 306.679 118.246 306.62 40.6097 306.56C36.6084 306.56 36.6681 306.56 36.3695 302.499C34.2196 271.205 32.1293 239.972 29.9794 208.678C29.0836 195.599 28.3072 182.461 27.292 169.382C27.1725 167.53 26.0976 165.739 25.3212 164.007C23.9476 160.603 21.738 157.378 21.2602 153.914C20.0061 145.135 19.17 136.297 18.8117 127.518C18.3936 116.947 25.0226 109.96 35.5334 108.706C43.7749 107.571 50.6427 109.661 55.1218 117.305ZM193.733 5.92647C192.419 5.92647 191.165 5.80703 189.851 5.92647C163.515 8.37502 144.643 21.633 135.386 46.3573C126.309 70.6039 131.743 92.7005 149.421 111.692C151.571 113.961 153.661 115.514 157.363 115.155C184.357 112.587 211.411 110.378 238.464 107.87C240.017 107.75 241.928 106.735 242.824 105.481C257.634 85.116 260.202 63.1388 249.094 40.5644C237.986 17.9303 218.756 6.94172 193.733 5.92647ZM270.295 68.0956C270.295 79.6217 273.52 90.1922 279.193 100.166C280.925 103.211 282.836 104.167 286.3 103.809C319.385 100.763 352.471 97.8962 385.556 95.0893C387.766 94.9102 388.9 94.0741 389.677 92.1033C394.156 80.9356 395.708 69.5289 393.618 57.5848C387.945 25.3954 359.279 3.29876 326.791 6.04591C294.96 8.73334 270.295 35.7868 270.295 68.0956ZM202.93 214.65C197.018 214.65 191.524 214.65 185.552 214.65C193.435 199.78 201.198 185.267 209.022 170.457C203.229 167.829 197.854 165.38 192.3 162.872C191.763 163.828 191.344 164.485 190.986 165.201C183.461 180.908 176.116 196.674 168.352 212.261C165.485 218.054 166.859 223.847 166.381 229.998C178.743 229.998 190.628 229.998 202.871 229.998C202.871 234.597 202.99 238.837 202.811 243.077C202.751 245.346 203.348 246.302 205.797 246.182C209.679 246.003 213.561 246.003 217.442 246.182C219.951 246.302 220.727 245.406 220.608 242.958C220.428 238.717 220.548 234.477 220.548 230.416C224.43 228.983 228.431 231.431 231.835 228.505C238.524 237.404 248.318 239.374 258.829 239.195C269.459 239.076 279.074 236.149 285.703 226.475C286.002 227.908 286.181 228.804 286.42 229.759C287.196 229.819 287.793 229.879 288.331 229.879C298.901 229.879 309.412 229.938 319.983 229.819C322.073 229.819 322.79 230.416 322.73 232.506C322.61 235.97 322.79 239.494 322.67 242.958C322.61 245.227 323.208 246.182 325.656 246.063C329.538 245.884 333.42 245.884 337.302 246.063C339.87 246.182 340.586 245.227 340.467 242.838C340.288 238.598 340.407 234.358 340.407 229.759C344.05 229.759 347.275 229.759 350.799 229.759C350.799 225.101 350.858 220.861 350.679 216.621C350.679 215.964 349.425 214.949 348.708 214.889C346.081 214.65 343.393 214.829 340.407 214.829C340.407 210.768 340.407 207.125 340.407 203.482C340.407 199.78 340.407 196.017 340.407 191.956C334.614 192.852 329.419 193.569 324.283 194.524C323.626 194.644 322.849 196.017 322.79 196.853C322.61 200.556 322.73 204.199 322.73 207.902C322.73 214.829 322.73 214.829 315.862 214.829C312.458 214.829 309.054 214.829 305.112 214.829C313.175 199.66 320.819 185.208 328.702 170.457C322.969 167.829 317.534 165.321 311.861 162.753C305.172 176.727 298.603 190.344 291.795 204.557C291.496 199.123 291.376 194.405 290.899 189.806C289.167 174.159 280.687 165.321 265.517 163.589C260.74 163.051 255.723 163.231 250.946 163.887C238.822 165.56 230.7 172.428 227.475 184.252C226.102 189.209 225.564 194.405 225.325 199.541C225.087 204.438 225.684 209.395 225.923 214.471C224.191 214.471 222.519 214.471 220.488 214.471C220.488 206.886 220.488 199.6 220.488 191.896C215.292 192.733 210.515 193.628 205.737 194.166C203.348 194.405 202.811 195.36 202.811 197.57C202.99 203.243 202.93 208.797 202.93 214.65ZM58.4064 146.748C58.4064 153.795 58.4064 160.901 58.4064 167.948C58.4661 180.191 66.8867 186.641 78.7114 183.476C85.5196 181.684 89.4014 176.907 89.4611 169.86C89.5208 155.109 89.5806 140.417 89.4611 125.666C89.4014 116.23 83.3099 110.378 73.9935 110.497C64.259 110.617 58.4661 116.29 58.4064 125.845C58.3467 132.833 58.4064 139.76 58.4064 146.748ZM454.473 151.107C447.606 151.107 440.738 151.107 433.87 151.107C420.612 151.167 413.744 161.558 418.88 173.801C421.03 178.997 424.972 182.043 430.585 182.043C443.186 182.043 455.847 181.744 468.448 181.445C472.091 181.386 475.853 180.251 479.437 180.609C484.513 181.087 487.439 178.579 489.47 174.757C495.322 163.649 487.857 151.167 475.376 151.107C468.388 151.048 461.401 151.107 454.473 151.107ZM54.226 144.717C54.226 140.417 54.2857 136.177 54.1662 131.877C54.1662 130.205 53.8676 128.533 53.6885 126.861C52.9718 119.754 48.9108 114.379 43.3568 112.946C31.2335 109.781 21.4991 117.962 22.7532 130.444C23.4699 137.491 24.1865 144.478 25.0226 151.466C25.7392 157.378 27.9489 162.693 33.9807 164.783C40.55 167.112 46.8206 165.858 52.076 161.2C53.2704 160.125 54.0468 158.035 54.1662 156.363C54.4649 152.481 54.226 148.599 54.226 144.717ZM454.175 146.927C454.175 147.046 454.175 147.166 454.175 147.225C460.446 146.867 466.716 146.927 472.867 146.091C481.945 144.837 486.543 137.969 485.17 128.891C483.737 119.396 477.585 114.499 468.448 115.514C460.923 116.35 453.399 117.007 445.933 117.962C439.842 118.739 434.646 121.247 432.735 127.518C430.705 134.147 432.198 140.358 437.095 145.434C437.931 146.33 439.484 146.867 440.738 146.927C445.217 147.046 449.696 146.927 454.175 146.927ZM491.023 198.525C490.963 189.03 485.409 183.894 476.092 184.909C471.733 185.387 467.373 185.805 463.014 186.283C456.205 186.999 449.338 187.537 442.529 188.552C435.005 189.746 431.182 195.181 432.138 202.348C433.273 210.708 438.05 214.949 445.993 214.172C457.28 213.097 468.568 211.903 479.795 210.589C486.842 209.753 491.023 205.095 491.023 198.525ZM93.9402 140.656C93.8805 140.656 93.761 140.656 93.7013 140.656C94.0596 146.091 94.4777 151.585 94.836 157.02C94.836 157.199 94.836 157.438 94.8957 157.617C95.6721 165.679 100.748 170.098 108.691 169.501C116.873 168.844 121.412 163.768 120.814 155.646C120.038 144.657 119.321 133.609 118.426 122.621C118.008 117.723 116.216 113.364 111.259 111.453C105.944 109.422 100.748 110.199 96.4484 113.901C94.7165 115.394 93.1041 118.022 93.0444 120.112C92.9846 126.98 93.6416 133.848 93.9402 140.656Z" fill="black"/>
<path d="M193.732 5.9265C218.755 6.94175 237.985 17.9303 249.093 40.5644C260.201 63.1388 257.574 85.116 242.823 105.481C241.927 106.735 240.016 107.69 238.463 107.87C211.41 110.318 184.356 112.588 157.363 115.155C153.66 115.514 151.57 113.961 149.42 111.692C131.742 92.7005 126.308 70.6636 135.385 46.3574C144.642 21.633 163.514 8.37504 189.851 5.9265C191.164 5.80706 192.478 5.9265 193.732 5.9265ZM173.786 67.9762C173.786 79.0245 182.385 87.684 193.374 87.684C204.542 87.684 213.261 78.9648 213.261 67.8568C213.201 57.0473 204.363 48.2684 193.434 48.2684C182.505 48.3281 173.786 57.0473 173.786 67.9762Z" fill="white"/>
<path d="M270.297 68.0956C270.297 35.8465 294.961 8.73336 326.852 6.04594C359.4 3.29879 388.006 25.3954 393.68 57.5848C395.77 69.4692 394.157 80.9356 389.738 92.1033C388.962 94.0741 387.827 94.9102 385.617 95.0894C352.532 97.8962 319.447 100.763 286.362 103.809C282.898 104.107 280.987 103.152 279.255 100.166C273.462 90.1923 270.297 79.6217 270.297 68.0956ZM332.585 87.7437C343.514 87.684 352.234 78.9051 352.234 67.9762C352.174 57.0473 343.395 48.2684 332.466 48.2684C321.537 48.2684 312.758 56.9876 312.698 67.9165C312.639 79.0245 321.418 87.7437 332.585 87.7437Z" fill="white"/>
<path d="M202.931 214.65C202.931 208.797 202.99 203.243 202.871 197.689C202.811 195.48 203.408 194.584 205.797 194.285C210.635 193.748 215.353 192.852 220.548 192.016C220.548 199.72 220.548 207.006 220.548 214.59C222.579 214.59 224.311 214.59 225.983 214.59C225.744 209.514 225.147 204.557 225.386 199.66C225.625 194.524 226.162 189.269 227.536 184.372C230.82 172.547 238.882 165.679 251.006 164.007C255.783 163.35 260.8 163.171 265.578 163.708C280.747 165.38 289.167 174.279 290.959 189.926C291.496 194.524 291.556 199.242 291.855 204.677C298.663 190.463 305.172 176.847 311.921 162.872C317.535 165.44 323.029 167.948 328.762 170.576C320.879 185.387 313.235 199.839 305.172 214.949C309.114 214.949 312.518 214.949 315.922 214.949C322.79 214.949 322.79 214.949 322.79 208.021C322.79 204.318 322.73 200.675 322.85 196.973C322.909 196.137 323.686 194.763 324.343 194.644C329.479 193.688 334.734 192.971 340.467 192.076C340.467 196.137 340.467 199.839 340.467 203.602C340.467 207.245 340.467 210.888 340.467 214.949C343.453 214.949 346.141 214.829 348.768 215.008C349.485 215.068 350.739 216.083 350.739 216.74C350.918 220.98 350.859 225.28 350.859 229.879C347.395 229.879 344.17 229.879 340.467 229.879C340.467 234.477 340.348 238.717 340.527 242.958C340.646 245.406 339.93 246.302 337.362 246.182C333.48 246.003 329.598 246.003 325.716 246.182C323.268 246.302 322.611 245.287 322.73 243.077C322.85 239.613 322.671 236.09 322.79 232.626C322.85 230.536 322.133 229.879 320.043 229.938C309.472 229.998 298.961 229.998 288.391 229.998C287.794 229.998 287.196 229.938 286.48 229.879C286.301 228.923 286.062 228.027 285.763 226.594C279.134 236.329 269.579 239.195 258.889 239.315C248.438 239.434 238.644 237.523 231.895 228.625C228.491 231.491 224.49 229.102 220.608 230.536C220.608 234.597 220.489 238.837 220.668 243.077C220.787 245.526 220.011 246.421 217.503 246.302C213.621 246.123 209.739 246.123 205.857 246.302C203.408 246.421 202.811 245.466 202.871 243.196C202.99 238.956 202.931 234.716 202.931 230.118C190.688 230.118 178.804 230.118 166.441 230.118C166.919 223.966 165.546 218.173 168.412 212.381C176.176 196.793 183.521 181.027 191.046 165.321C191.405 164.604 191.823 163.947 192.36 162.992C197.854 165.5 203.229 167.948 209.082 170.576C201.259 185.327 193.495 199.839 185.612 214.769C191.464 214.65 196.959 214.65 202.931 214.65ZM245.452 201.571C246.109 206.588 246.527 211.724 247.542 216.74C248.378 220.861 250.767 223.966 255.186 225.041C262.472 226.773 267.907 223.489 269.579 215.904C271.729 206.11 271.789 196.137 269.639 186.283C268.265 179.773 264.503 177.086 257.874 177.325C252.499 177.504 248.796 180.49 247.423 186.641C246.467 191.419 246.168 196.435 245.452 201.571Z" fill="white"/>
<path d="M58.4054 146.748C58.4054 139.76 58.3457 132.833 58.4054 125.845C58.4652 116.29 64.2581 110.617 73.9925 110.497C83.2492 110.378 89.4004 116.29 89.4602 125.666C89.5796 140.417 89.5199 155.109 89.4602 169.86C89.4004 176.847 85.5186 181.684 78.7105 183.476C66.8858 186.581 58.4652 180.131 58.4054 167.948C58.3457 160.842 58.4054 153.795 58.4054 146.748Z" fill="white"/>
<path d="M454.473 151.107C461.46 151.107 468.388 151.048 475.375 151.107C487.857 151.167 495.322 163.649 489.469 174.757C487.439 178.638 484.512 181.087 479.436 180.609C475.853 180.251 472.15 181.386 468.448 181.445C455.847 181.744 443.186 182.042 430.585 182.042C424.971 182.042 421.029 178.997 418.88 173.801C413.803 161.558 420.671 151.167 433.869 151.107C440.737 151.048 447.605 151.107 454.473 151.107Z" fill="white"/>
<path d="M54.2274 144.717C54.2274 148.599 54.4663 152.481 54.108 156.363C53.9885 158.035 53.2122 160.125 52.0178 161.2C46.7623 165.858 40.4917 167.112 33.9224 164.783C27.8906 162.633 25.681 157.378 24.9643 151.466C24.1282 144.478 23.4116 137.431 22.6949 130.444C21.4408 118.022 31.1753 109.84 43.2986 112.946C48.9123 114.379 52.9136 119.814 53.6302 126.861C53.8094 128.533 54.108 130.205 54.108 131.877C54.2871 136.177 54.2274 140.417 54.2274 144.717Z" fill="white"/>
<path d="M454.176 146.927C449.697 146.927 445.218 147.046 440.739 146.867C439.484 146.807 437.932 146.27 437.096 145.374C432.198 140.298 430.705 134.147 432.736 127.458C434.647 121.187 439.843 118.679 445.934 117.903C453.399 116.947 460.984 116.29 468.449 115.454C477.586 114.439 483.737 119.336 485.171 128.831C486.544 137.909 481.946 144.777 472.868 146.031C466.717 146.867 460.387 146.807 454.176 147.166C454.176 147.166 454.176 147.046 454.176 146.927Z" fill="white"/>
<path d="M491.023 198.525C491.083 205.095 486.843 209.753 479.796 210.589C468.509 211.903 457.281 213.097 445.994 214.172C438.111 214.948 433.274 210.708 432.139 202.347C431.183 195.181 435.065 189.746 442.53 188.552C449.279 187.477 456.147 186.999 463.014 186.283C467.374 185.805 471.734 185.387 476.093 184.909C485.35 183.953 490.964 189.03 491.023 198.525Z" fill="white"/>
<path d="M93.9414 140.656C93.5831 133.848 92.9261 126.98 93.0456 120.172C93.1053 118.022 94.7177 115.394 96.4496 113.961C100.75 110.258 106.005 109.482 111.26 111.512C116.157 113.424 118.009 117.783 118.427 122.68C119.323 133.669 120.039 144.657 120.816 155.706C121.353 163.828 116.874 168.904 108.692 169.561C100.75 170.158 95.6733 165.798 94.8969 157.676C94.8969 157.497 94.8372 157.258 94.8372 157.079C94.4789 151.645 94.0608 146.15 93.7025 140.716C93.8219 140.656 93.8817 140.656 93.9414 140.656Z" fill="white"/>
<path d="M173.785 67.9761C173.785 57.0472 182.504 48.2683 193.433 48.2683C204.362 48.2683 213.201 56.9875 213.26 67.9164C213.32 79.0244 204.541 87.7436 193.374 87.7436C182.385 87.6839 173.785 79.0244 173.785 67.9761ZM193.374 75.2023C197.435 75.262 200.6 72.0968 200.6 68.0955C200.6 64.0943 197.375 60.8694 193.374 60.9291C189.492 60.9888 186.386 64.0943 186.267 67.9164C186.267 71.9177 189.372 75.1426 193.374 75.2023Z" fill="black"/>
<path d="M332.583 87.7436C321.415 87.8033 312.636 79.0244 312.696 67.9761C312.755 57.0472 321.534 48.328 332.463 48.328C343.392 48.328 352.171 57.1069 352.231 68.0358C352.231 78.905 343.511 87.6839 332.583 87.7436ZM332.344 75.2023C336.345 75.262 339.63 72.0371 339.63 68.0955C339.63 64.154 336.345 60.8693 332.403 60.8693C328.581 60.8693 325.416 63.9748 325.297 67.8566C325.237 71.9176 328.223 75.0828 332.344 75.2023Z" fill="black"/>
<path d="M245.453 201.571C246.11 196.435 246.409 191.478 247.484 186.641C248.857 180.55 252.56 177.564 257.935 177.325C264.504 177.086 268.266 179.773 269.7 186.283C271.79 196.137 271.79 206.05 269.64 215.904C267.968 223.489 262.533 226.773 255.247 225.041C250.828 224.026 248.439 220.861 247.603 216.74C246.588 211.724 246.11 206.528 245.453 201.571Z" fill="black"/>
<path d="M193.376 75.2024C189.375 75.1427 186.269 71.9177 186.329 67.9165C186.389 64.0346 189.554 60.9291 193.436 60.9291C197.377 60.8694 200.662 64.1541 200.662 68.0956C200.602 72.0969 197.437 75.2024 193.376 75.2024Z" fill="white"/>
<path d="M332.346 75.2023C328.285 75.1426 325.239 71.9774 325.359 67.8567C325.419 63.9749 328.584 60.8694 332.466 60.8694C336.407 60.8694 339.692 64.154 339.692 68.0956C339.572 72.0371 336.288 75.2621 332.346 75.2023Z" fill="white"/>
</svg>
