<svg width="12" height="21" viewBox="0 0 12 21" fill="none" xmlns="http://www.w3.org/2000/svg">
<path d="M0.229834 2.58679C0.229834 2.41101 0.307959 2.25476 0.425147 2.13757L1.40171 1.16101C1.5189 1.04382 1.69468 0.965696 1.85093 0.965696C2.00718 0.965696 2.18296 1.04382 2.30015 1.16101L11.4017 10.2626C11.5189 10.3798 11.597 10.5555 11.597 10.7118C11.597 10.868 11.5189 11.0438 11.4017 11.161L2.30015 20.2626C2.18296 20.3798 2.00718 20.4579 1.85093 20.4579C1.69468 20.4579 1.5189 20.3798 1.40171 20.2626L0.425147 19.286C0.307959 19.1688 0.229834 18.993 0.229834 18.8368C0.229834 18.6805 0.307959 18.5048 0.425147 18.3876L8.10093 10.7118L0.425147 3.03601C0.307959 2.91882 0.229834 2.74304 0.229834 2.58679Z" fill="#2B2B2B"/>
</svg>
