<svg width="13" height="20" viewBox="0 0 13 20" fill="none" xmlns="http://www.w3.org/2000/svg">
<path d="M12.0575 2.06848C12.0575 1.8927 11.9794 1.73645 11.8622 1.61926L10.8857 0.642699C10.7685 0.525513 10.5927 0.447386 10.4364 0.447386C10.2802 0.447386 10.1044 0.525513 9.98723 0.642699L0.885668 9.74426C0.76848 9.86145 0.690355 10.0372 0.690355 10.1935C0.690355 10.3497 0.76848 10.5255 0.885668 10.6427L9.98723 19.7443C10.1044 19.8615 10.2802 19.9396 10.4364 19.9396C10.5927 19.9396 10.7685 19.8615 10.8857 19.7443L11.8622 18.7677C11.9794 18.6505 12.0575 18.4747 12.0575 18.3185C12.0575 18.1622 11.9794 17.9865 11.8622 17.8693L4.18645 10.1935L11.8622 2.5177C11.9794 2.40051 12.0575 2.22473 12.0575 2.06848Z" fill="#2B2B2B"/>
</svg>
