<svg width="31" height="31" viewBox="0 0 31 31" fill="none" xmlns="http://www.w3.org/2000/svg">
<path d="M20.8324 15.6981C20.8324 18.452 18.5863 20.6981 15.8324 20.6981C13.0785 20.6981 10.8324 18.452 10.8324 15.6981C10.8324 12.9442 13.0785 10.6981 15.8324 10.6981C18.5863 10.6981 20.8324 12.9442 20.8324 15.6981ZM23.5277 15.6981C23.5277 11.4403 20.0902 8.00281 15.8324 8.00281C11.5746 8.00281 8.13707 11.4403 8.13707 15.6981C8.13707 19.9559 11.5746 23.3934 15.8324 23.3934C20.0902 23.3934 23.5277 19.9559 23.5277 15.6981ZM25.6371 7.69031C25.6371 6.69421 24.8363 5.89343 23.8402 5.89343C22.8441 5.89343 22.0433 6.69421 22.0433 7.69031C22.0433 8.6864 22.8441 9.48718 23.8402 9.48718C24.8363 9.48718 25.6371 8.6864 25.6371 7.69031ZM15.8324 3.39343C18.0199 3.39343 22.7074 3.21765 24.68 3.9989C25.3636 4.27234 25.8714 4.60437 26.3988 5.13171C26.9261 5.65906 27.2582 6.16687 27.5316 6.85046C28.3129 8.82312 28.1371 13.5106 28.1371 15.6981C28.1371 17.8856 28.3129 22.5731 27.5316 24.5458C27.2582 25.2294 26.9261 25.7372 26.3988 26.2645C25.8714 26.7919 25.3636 27.1239 24.68 27.3973C22.7074 28.1786 18.0199 28.0028 15.8324 28.0028C13.6449 28.0028 8.95738 28.1786 6.98473 27.3973C6.30113 27.1239 5.79332 26.7919 5.26598 26.2645C4.73863 25.7372 4.4066 25.2294 4.13316 24.5458C3.35191 22.5731 3.52769 17.8856 3.52769 15.6981C3.52769 13.5106 3.35191 8.82312 4.13316 6.85046C4.4066 6.16687 4.73863 5.65906 5.26598 5.13171C5.79332 4.60437 6.30113 4.27234 6.98473 3.9989C8.95738 3.21765 13.6449 3.39343 15.8324 3.39343ZM30.8324 15.6981C30.8324 13.6278 30.8519 11.577 30.7347 9.50671C30.6175 7.10437 30.0707 4.97546 28.3129 3.21765C26.555 1.45984 24.4261 0.912962 22.0238 0.795776C19.9535 0.678588 17.9027 0.698119 15.8324 0.698119C13.7621 0.698119 11.7113 0.678588 9.64098 0.795776C7.23863 0.912962 5.10973 1.45984 3.35191 3.21765C1.5941 4.97546 1.04723 7.10437 0.930038 9.50671C0.812851 11.577 0.832382 13.6278 0.832382 15.6981C0.832382 17.7684 0.812851 19.8192 0.930038 21.8895C1.04723 24.2919 1.5941 26.4208 3.35191 28.1786C5.10973 29.9364 7.23863 30.4833 9.64098 30.6005C11.7113 30.7177 13.7621 30.6981 15.8324 30.6981C17.9027 30.6981 19.9535 30.7177 22.0238 30.6005C24.4261 30.4833 26.555 29.9364 28.3129 28.1786C30.0707 26.4208 30.6175 24.2919 30.7347 21.8895C30.8519 19.8192 30.8324 17.7684 30.8324 15.6981Z" fill="black"/>
</svg>
