<svg width="14" height="13" viewBox="0 0 14 13" fill="none" xmlns="http://www.w3.org/2000/svg">
<path d="M9.77453 5.5C9.77453 7.42969 8.20422 9 6.27453 9C4.34485 9 2.77453 7.42969 2.77453 5.5C2.77453 3.57031 4.34485 2 6.27453 2C8.20422 2 9.77453 3.57031 9.77453 5.5ZM13.7745 12C13.7745 11.7344 13.6652 11.4766 13.4855 11.2969L10.8058 8.61719C11.4386 7.70312 11.7745 6.60937 11.7745 5.5C11.7745 2.46094 9.3136 -5.96046e-07 6.27453 -5.96046e-07C3.23547 -5.96046e-07 0.774534 2.46094 0.774534 5.5C0.774534 8.53906 3.23547 11 6.27453 11C7.38391 11 8.47766 10.6641 9.39172 10.0312L12.0714 12.7031C12.2511 12.8906 12.5089 13 12.7745 13C13.3214 13 13.7745 12.5469 13.7745 12Z" fill="#52BBDC"/>
</svg>
