<svg width="14" height="14" viewBox="0 0 14 14" fill="none" xmlns="http://www.w3.org/2000/svg">
<path d="M10.8571 10.7165L10.8571 13.8594L12 13.8594L12 10.7165L10.8571 10.7165ZM9.71429 7.57366L9.71429 9.85937C9.71429 10.1719 9.97321 10.4308 10.2857 10.4308L12.5714 10.4308C12.8839 10.4308 13.1429 10.1719 13.1429 9.85937L13.1429 7.57366C13.1429 7.26116 12.8839 7.00223 12.5714 7.00223L10.2857 7.00223C9.97321 7.00223 9.71429 7.26116 9.71429 7.57366ZM6.28571 6.14509L6.28571 13.8594L7.42857 13.8594L7.42857 6.14509L6.28571 6.14509ZM1.71428 11.8594L1.71428 13.8594L2.85714 13.8594L2.85714 11.8594L1.71428 11.8594ZM10.8571 0.145088L10.8571 6.71652L12 6.71652L12 0.145088L10.8571 0.145088ZM0.571428 8.71652L0.571428 11.0022C0.571428 11.3147 0.830356 11.5737 1.14286 11.5737L3.42857 11.5737C3.74107 11.5737 4 11.3147 4 11.0022L4 8.71652C4 8.40402 3.74107 8.14509 3.42857 8.14509L1.14286 8.14509C0.830356 8.14509 0.571428 8.40402 0.571428 8.71652ZM5.14286 3.00223L5.14286 5.28795C5.14286 5.60045 5.40179 5.85937 5.71429 5.85937L8 5.85937C8.3125 5.85937 8.57143 5.60045 8.57143 5.28795L8.57143 3.00223C8.57143 2.68973 8.3125 2.4308 8 2.4308L5.71428 2.4308C5.40178 2.4308 5.14286 2.68973 5.14286 3.00223ZM6.28571 0.145088L6.28571 2.14509L7.42857 2.14509L7.42857 0.145088L6.28571 0.145088ZM1.71428 0.145088L1.71428 7.85937L2.85714 7.85937L2.85714 0.145088L1.71428 0.145088Z" fill="white"/>
</svg>
